<svg xmlns="http://www.w3.org/2000/svg" width="25" height="25" fill="none" viewBox="0 0 25 25">
    <path fill="#262626" d="M12.5 15.002a2.506 2.506 0 0 0 2.503-2.502c0-.545-.178-1.048-.473-1.459A2.5 2.5 0 0 0 12.5 9.998c-.835 0-1.574.412-2.03 1.043a2.49 2.49 0 0 0-.473 1.458 2.504 2.504 0 0 0 2.501 2.503zM17.964 9.439V7.029h-.314l-2.096.007.008 2.41 2.402-.007z"/>
    <path fill="#262626" d="M12.5 0C5.608 0 0 5.608 0 12.5S5.608 25 12.5 25 25 19.392 25 12.5 19.393 0 12.5 0zm7.109 11.041v5.82a2.75 2.75 0 0 1-2.748 2.749H8.14a2.75 2.75 0 0 1-2.748-2.748V8.139a2.75 2.75 0 0 1 2.748-2.747h8.722a2.75 2.75 0 0 1 2.748 2.747v2.902z"/>
    <path fill="#262626" d="M16.389 12.5A3.893 3.893 0 0 1 12.5 16.39 3.893 3.893 0 0 1 8.612 12.5c0-.516.103-1.008.286-1.459H6.776v5.82c0 .753.61 1.362 1.362 1.362h8.723c.75 0 1.362-.609 1.362-1.361v-5.82H16.1c.185.45.289.942.289 1.458z"/>
</svg>
