<?xml version="1.0" encoding="utf-8"?>
<!-- Generator: Adobe Illustrator 18.0.0, SVG Export Plug-In . SVG Version: 6.00 Build 0)  -->
<!DOCTYPE svg PUBLIC "-//W3C//DTD SVG 1.1//EN" "http://www.w3.org/Graphics/SVG/1.1/DTD/svg11.dtd">
<svg version="1.1" id="Слой_2" xmlns="http://www.w3.org/2000/svg" xmlns:xlink="http://www.w3.org/1999/xlink" x="0px" y="0px"
	 viewBox="385 -208 1159.9 1208" enable-background="new 385 -208 1159.9 1208" xml:space="preserve">
<path fill="#808080"    d="M1533,172c-3.5-5.3-7.3-10.5-11-15.8
	c-7.9-11.3-13.2-23.9-21.2-35.2c-8.6-12.1-17.8-22.2-29.2-31.7c-9.4-7.7-19-11.7-29.9-15.8c-0.7-6-6.4-10.9-10.1-15.4
	c-5-6.4-5.7-12.2-8.3-19.7c-2.6-7.9-6-13.6-11.7-19.7c-4.5-4.8-37.9-33.2-40.6-35.1c-6.8-4.6-13.2-9.9-19.8-14.7
	c-7.2-5-64.3-37.8-73.1-41.7c-8.7-3.9-17.9-6-26.5-9.2c-4.2-1.6-8.2-3.1-12.5-4.2c-3.5-1-8.8-1.8-12-3.7c-3.1-1.9-4.9-6.8-7.6-9.2
	c-1.8-1.6-4.9-5.2-7.3-5c0.1-0.1,0.3-0.3,0.3-0.4c-5.4-1.4-12.2,2.3-17.4,2.9c-0.5-2.4,1.8-4.3,2.4-6.4c0.8-2.4,0.3-5.6,0.1-8
	c-0.4-5.4,1.2-10.2,1-15.5c-0.5-7.5-2.9-15.2-5.2-22.4c-1.1-3.4-2-6.9-4.3-10.1c-2.3-3.1-4.6-5.7-6.5-9c-3-5.2-8-12.1-13.2-15.4
	c-2.9-1.8-6.7-1.8-9.8-3.3c-3.4-1.6-6.7-3.5-10.6-4.2c-2.2-0.4-4.3,0.3-6.5-0.1c-1.8-0.3-2.9-1.1-5-1.1c-4.1,0-8.6-0.4-12.5,0.4
	c-9.5,2-19.3,3.8-28.5,7.1c-7.2,2.6-14.1,5-20.5,9.9c-6.7,5-10.5,9.5-13.5,17.1c2-1.5,3.8-2.7,6.4-3.4c-0.5,2-2.7,4.1-2.3,6.3
	c1.6-1.5,4.2-3.8,6.4-3.8c-2,3.7-4.9,7.1-6,11.4c-1.2,4.5-2.4,9.1-4.5,13c-0.7,1.4-2.6,2.6-3,3.9c-0.5,1.6,0.4,3.8,0.5,5.4
	c0.4,5,0,7.6-3.4,11.1c-5.3,5.6-8.2,11.3-11.7,17.8c-2,3.8-3.3,4.6,0,8.3c2.2,2.3,5.2,2,6.9,4.5c1.9,2.7,2.9,5.6,2,8.7
	c-0.7,2.6-0.8,7.6,3.5,7.7c0.3,2-2,3.1-1.9,4.9c0.1,2.2,2.6,2.3,3.7,3.9c1.6,2.6,2,9.9,3,13c1.2,3.7,2.3,7.1,6.9,7.1
	c3.4,0,6.9-1.6,9.9-3l5-3c2.2-0.5,4.6-2.4,6.9-2.4c-3.8,6.3-11.6,9.5-15.8,15.5c-1.2,1.6-1.9,2.9-2.6,4.3c-0.7,1.4-1,2.7-2.2,3.8
	c-1.5,1.5-3.4,1.4-5.3,1.8c-1.6,0.4-3,1.5-4.5,2c-3.8,1.2-8.4,1.1-12.5,2c-3.9,1-8,0.7-12.1,1.4c-8,1.5-15.9,6.5-23,10.6
	c-7.3,4.2-15.9,6.4-23.4,10.1c-6.5,3.1-13,6.4-19.6,9.8c-3.8,1.9-7.6,3.7-11.4,5.2c-4.1,1.5-8.8,1.9-12.9,3.7
	c-6.5,2.6-13,8.2-18.5,12.5C922,35.9,916.2,39,913.2,45c0.8,0.5,1.4,1.5,1.5,2.4c-6.4,2.6-32.8,18.9-40,22.4c-3.9,2-8.2,3.3-12,5.6
	c-3.1,1.8-27.5,9.2-30.6,10.6c-3.9,1.8-3.5,5-6.4,7.2c-2.7,2-6.8,3.3-10.2,4.3c-14.5,4.9-31.7,5.6-47,3c-7.1-1.2-14.8-2.9-21.3-6.1
	c-2-1-6.5-5.6-8.7-5.4c-2.9,0.1-5.4,4.3-3.7,6.7c-3.8-3.1-12-9.2-15.4-8.2c-9.5,2.7,3.3,12.1,5,15.1c-2.2-1.1-4.2-2.6-6.4-3.5
	c-2.3-1.1-5-3.3-7.5-3.9c-8-2,0,7.9,0.4,9.9c-0.3,0.1-0.5,0.1-0.8,0.3c4.5,10.6,14.1,16.3,24.5,20c4.9,1.8,8.8,5,13.5,6.9
	c5.3,2.3,12.8-0.3,17.1,3.4c-3,3.7-17-0.3-8.2,7.6c4.5,3.9,9.2,7.3,14.9,8.6c13.6,2.6,27.3,3.7,41.4,3.4c-2.3,2-0.3,5,1.6,6.1
	c2.6,1.5,4.5,0.4,6.9-0.5c3.9-1.5,9.2-4.5,11.1-8.6c1.4,0.4,2.9,0.3,4.3,0.4c3.7,0.3,7.6,1.5,11.6,1.5c3.7,0,7.6-1.2,11.1-2.4
	c3.4-1.1,6.7-2.2,8.7-5.6s1.9-6.1,5.4-8.2c6.4-3.5,13.6-6.3,20.1-9.4c1.6-0.8,3.3-1.5,4.8-2c-0.5,3.9-1.2,7.7-3.3,11.6
	c-1.6,3-3.3,6.8-6,9c-3,2.3-7.5,3.4-11,4.6c-7.7,2.7-39,13.7-47,16.3c-15.9,5.3-33,5.2-48.5,12.1c-7.7,3.5-14.1,9-22.4,10.5
	c-1.8-2.6-4.2-8.6-7.7-4.9c-2,2.2-0.8,3.5-4.3,3.5c-1.8,0-5.3-0.7-6.4-2.2c-1.6-2-0.4-4.1-3.1-5.8c-1.9-1.2-3.8-0.8-5.6,0.4
	c-3.5,2.2-5,6.1-5.4,10.1c-3.3-2.2-6,2.3-8.6,3.4c-3.4,1.6-7.6,0-10.9-0.4c-4.1-0.4-8.2-0.3-12-1c-4.5-0.8-8-1.2-12.5,0
	c-3.5,1-6.3,4.6-9.9,5.4s-8.6-0.3-12-0.5c-8-0.7-16.2-1.5-24.5-1c-3.8,0.3-7.2,1.6-11,2c-3.9,0.4-8-1-11.6,1.5c-3.3,2.3-4.5,5-8.4,6
	c-3.5,0.8-7.5,0.7-10.9,1.9c0.4-6.1-7.7-12.1-9.1-17.9c-0.8-3.1-2.3-8-1.5-11.6s4.8-5.2,5-9c0.1-3.4-2.2-6.8-3-10.1
	c-1-3.5-2.6-7.3-4.3-10.6c-1.8-3.4-3.8-6.8-6-9.9c-1-1.4-2.4-2.4-3.3-3.8c-1-1.9-0.7-3.7-1.5-5.6c-2-4.6-6.4-8.3-10.9-9.6
	c-4.6-1.2-9.2-3.9-14-5.6c-10.6-3.8-22-8.3-34-7.3c-0.1,0.4-7.1,1.9-7.1,1.9c-1.8,0.7-3.7,0.8-5.4,1.5c-1.6,0.5-3.7,1.8-5.6,2
	c-2.3,0.3-3.8-0.5-6-0.1c-1.9,0.4-4.2,1.6-6,2.4c-3.3,1.6-7.1,4.2-9.9,6.8c-1.8,1.6-6.8,6.4-6.7,8.8c-3.9-2.2-11.6-1.5-16.3-0.8
	c-5.2,0.8-10.2,3.7-14.7,6.3c-4.5,2.6-8.7,6.5-11.6,11c-2.4,3.8-7.6,9.1-6.8,14c1-1.5,1.8-3.1,2.9-4.3c1.2-1.2,2.7-1.8,3.8-3.1
	c-3.9,7.1-7.2,14-8.8,21.9c-0.8,3.7-1.2,8-1,12.1c0.1,2.4,0.1,6,1.5,8.4c-0.1,1-0.4,1.8-0.4,2.6c-0.3,1.8-1.2,10.7,0.5,10.1
	l-0.5,3.9c-2.3-0.8-6.4,6.5-7.1,8.8c-1.6,4.6-0.5,7.7,1.5,12c0.4-4.1,2.2-15.5,8.6-14.8c0.3,3.4,0.5,6.4,2,9.4
	c0.5,1.2,1.8,2.2,1.9,3.4c0.1,1-1,2.7-1,3.9c0.7-1.2,1.5-2.4,2.2-3.8c5.3,0.4,0,7.6-2,9.1c-2.9,2-5.3,2.6-8.6,2.9
	c-4.1,0.4-7.5-0.1-11-1.6c-2-0.8-5.4-1.8-7.2-3.5c1.5,2,2.9,4.2,5.2,5.7c3.1,2,7.5,3.3,11.1,3.9c4.2,0.8,6.8-0.8,10.6-2
	c2.6-0.8,6.9-1.2,9-3.4c-6.4,5.7-1.1,17.8,3.9,22.8c5.7,5.7,17.5,10.9,25.3,6.4c-3.7-1.2-7.9-1.1-11.4-3.3c-2.4-1.5-4.9-4.5-6.8-6.8
	c-3.5-3.9-11.3-16.2-4.8-20.4c0.8,7.5,3,14.5,9.5,19.6c7.2,5.7,14.8,4.6,20.9-1.2c-4.9,3.1-11.8,1.6-14.8-3.4c3.4-0.7,8-3.3,11.4-3
	c0.1,2.6-4.8,4.5-6.8,5c-0.1,0.5-0.1,0.8,0,1.4c3.5,0.1,7.3-1.8,10.9-2c1.5-4.1,3.8-7.5,5.6-11.4c1.1-2.3,1.9-4.6,2.4-7.1
	c0.3-1.9-0.1-4.3,1.5-5.4c0.4,3.9-0.3,7.3-1,11c-0.4,2.2-0.5,4.3-1.4,6.4c-1,2.4-3,4.5-3.5,6.9c5.7-3.7,9.2-10.7,9.9-17.4
	c0.5-6.1-1.5-10.2-3.4-15.5c0.7,0.7,1.6,1.9,2.3,3c3.7,5,8.6,13.6,7.6,20c-1,6.4-12.9,8.7-11.4,14.8c0.4,1.9,1.2,3,1.4,5.2
	c0.1,1.9,0,4.1,0,6c0,4.1,0.5,8.6,0,12.5c-0.5,4.2-5.7,3.8-6.4,8.2c-0.4,2.4,1.2,3.8-1.1,5.7c-1.5,1.2-3.5,1-5.2,1.5
	c-4.2,1.4-6.3,4.6-7.3,8.6c-1.2,4.1-4.5,6.8-7.1,10.3c-2.2,3-4.2,6.3-6,9.5c-1,1.9-2.4,3.9-2.9,6.1c-0.3,1.9,0.1,4.1,0,6
	c-0.3,3.4-2.3,6.8-2.6,9.9c-0.1,2,0.8,4.1,1.1,6c0.1,1.9,0,4.1,0,6c0,8.2-0.8,16.3,0.4,24.1c1.4,8.6,1.5,16.6,2.2,25.4
	c0.3,4.1,1.5,7.6,2.4,11.4c1.1,4.1-1.5,6.4-0.5,10.6c1.8,7.2,4.8,13.2,8.2,20c1.6,3.3,6.3,6,4.8,9.5c-1.5,3.8-4.1,6.3-4.3,10.5
	c-0.5,7.5,2.2,15.5,11,15.5c2.6,0,3-0.5,5.4,0.7c1.5,0.8,2.6,1.2,4.2,1.9c3,1.1,5.2,3.9,7.6,6c5.7,4.6,12.8,7.1,19.4,9.5
	c3.5,1.2,4.8,3.9,7.3,6.3c2.7,2.3,8.8,1,6.1-3.4c4.8,2,13.3,6.9,18.5,5.3c6.5-2,11.4-7.2,16.4-11.7c5.4-4.8,27.2-29.2,29.1-30.3
	c4.8,5.3,10.7,7.2,17,10.1c5.8,2.7,28.9,18.1,35.7,19.7c3.7,1,8,2.9,11.4,1.1c3.4-1.8,6.9-3.4,10.5-4.5c7.7-2.4,13.9-4.9,20.5-9.9
	c3-2.2,5.3-4.5,8.6-3.3c2.6,1,6.3,5,8.4,4.6l2,2.4c0,4.5-0.7,9.8,0.5,14c1.2,3.7,3,7.3,4.8,10.6c2,3.7,8.3,18.5,10.7,21.7
	c4.6,6,11.7,11.3,15.5,17.9c1.1,2,0.5,3.4,0.8,5.7c0.3,1.9,1.2,3.7,2,5.4c1.4,3.4,2.6,6.7,2.9,10.2c0.3,4.5-0.1,7.3-1.8,11.4
	c-1.5,3.8-3.5,7.6-2.3,11.6c1.2,4.1,9,18.8,10.1,22c2.3,7.3,1.2,15.5-3.8,21.5c-2.9,3.4-4.3,4.8-3.3,9c1,3.5,1.9,7.5,3.1,10.9
	c2.3,6.5,6.9,13,7.5,20c0.7,8.3-1.5,15.8-1.5,24.1c0,4.2,3.9,14.9,4.3,16.6c0.4,1.9,0,2.4-0.4,4.3c-1.2,7.3,2.3,15.4,2.9,22.4
	c-4.9,1.1-11.3,12.4-12.1,17c-0.7,3.9,1.6,6.7,2.4,10.2c1,3.9,1.4,7.9,1.6,12c0.3,3.7,1.9,7.2,3.4,10.6c0.7,1.4,1.5,2.7,1.8,4.2
	c0.1,0.8,1,1.1,0.8,2c0,0.3-1.8,1.8-2,2.4c-3,7.1,4.6,14.4,5.2,21.1c0.3,3.1-1.4,6.7-1.5,10.1c-0.3,3.9,1.2,7.5,1.5,11
	c0.3,3.7,1,7.1,1.5,10.5c0.4,2.7-0.5,9.5,3.9,8.6c0,0,2.7,37.2-4.1,50.8c-3.3,6.4-6.9,13.3-11,19.2c-3.8,5.3-8.7,10.3-13,15.4
	c-2,2.4-3.1,4.3-6.4,4.6c-3.3,0.3-6.7-0.3-9.5,1c-5,2-7.3,9.6-7.6,14.4c-1.5,0.5-4.6,3.3-3.9,5.2c0.8,2.6,5.2,1.9,6.9,1.5
	c0.7,2.9,6.3,4.2,8.6,4.5c3.9,0.3,7.7-0.1,11.1-1.9c3.8-2,4.2-3.5,8.8-3.1c3.7,0.4,7.7-0.3,10.9-1.6c3.3-1.4,4.5-5,6.1-7.9
	c1.8-3,3.8-5.8,6.1-8.4c5.2-5.7,12.8-7.1,19.7-9.8c6.9-2.6,13.9-3.5,20-8.6c5.4-4.5,12.5-11,9.2-18.3c-1.4-3.3-3.5-6.1-5.6-9
	c-9.1-12.8-1.1-59.9-1.1-59.9c0,0.4,5.7-4.2,8.6-6.4c3-2.3,5.4-5.7,8-8.6c4.9-5.4,10.2-9.8,16-14c5.7-4.2,12.2-8.4,19-10.7
	c3.7-1.2,7.9-2.2,11-4.5c2.6-1.9,4.3-4.6,6.9-6.5c2-1.6,8.2-2.4,8.7-4.3c0.7-2.2-3.1-8.8-4.2-10.9c-3.3-6.7-6.4-13.3-9-20.5
	c-5.7-15.2-12.4-29.1-15.4-44.6c-1.5-8.2-3.5-16-4.1-24.6c-0.5-8.4-1.6-17-2.3-25.4c-1.4-17,2.3-34-0.1-50.4
	c-1.2-8.3,0.4-16.9,2-24.9c3.1,5.7,6,11.1,10.5,16.3c4.8,5.6,9.8,11.1,15.2,15.9c5.3,4.6,11,8.8,15.5,14
	c6.3,7.2,12.4,14.7,18.2,22.2c2.7,3.5,6.1,7.6,9.8,10.3c3.4,2.6,6.4,7.1,9.9,9.1c2-6,2-14.1,1.4-20.8c-3-1.1-5.7-4.6-8.4-6.5
	c-3.1-2.2-6.3-4.2-9.5-6.3c-6.1-3.9-12.9-7.1-18.3-11.6c-2.7-2.2-3.4-5.4-5.3-8.3c-1.8-2.9-3.4-5.7-5.3-8.7
	c-3.9-6.1-7.1-12.4-9.1-19.4c-1.9-6.5-5.7-12.2-8.2-18.5c-2.3-6-4.6-11.7-7.2-17.5c-1.8-3.9-4.1-7.5-6.4-11.1
	c0.1-3.1,0.3-6.3,0.3-9.4c0-8.3,2.7-57.5,3-61.4c0.1-2.2,0.5-16,0.5-17.4v0.1v-0.1l0,0l0,0c1-3.3,4.6-6.4,6.4-9.5
	c2.2-3.9,12.4-18.9,14.5-23c2.2-4.1-1.6-2.4-1.4-5.4c0-0.7,3-2.7,3.7-3.4c6.4-5.8,13.9-10.6,21.3-15.1c7.7-4.8,57.1-44.2,64.1-49.1
	c13.9-9.6,27.5-19.7,42.4-27.5c13.2-6.8,27-12.6,39.1-21.7c6.5-4.9,13.6-10.3,19.3-16.2c3.3-3.3,6.4-6.7,9.6-9.9
	c1.5-1.5,3.1-2.9,4.3-4.5c0.8-1.1,1.6-3.1,2.6-3.9c3-2.3,9-1.6,12.5-2.9c3.5-1.2,6.8-3.5,10.3-4.8c3.4-1.2,8-1.1,11.7-1.4
	c3.5-0.3,8.6-1,12-0.5c0.4-4.8-3-9.6,0.5-13.3c2.9-3,6.5-5,9.9-7.2c12.4-7.9,25.1-13.7,38.3-18.8c-3.8,4.5-7.2,9.4-9.4,14.8
	c-2.4,6.4-5.7,13.3-7.3,20.1c-0.5,2-0.1,2.7-1.6,4.3c-1.2,1.4-3.5,2.4-4.9,3.7c-3.9,3.4-7.2,7.3-11,10.9
	c-6.4,6.1-12.1,12.4-17.5,19.4c-2.2,2.9-4.5,6-6.4,9.1c-2.2,3.7-3.4,8-6,11.4c-6.1,8-13.7,14.8-20.1,22.6
	c-5.7,6.9-11.6,13.7-17.7,20.4c-3.4,3.7-6.7,7.5-9.5,11.7c-1.1,1.5-1.9,3-2.9,4.5c-0.3,0.4-1.2,1.2-1.4,1.6c-0.3,1.1,0.1,1.6,0,2.3
	c0,0.1,1.1,0.5,1.2,0.7c-3.3,1.5-5.8,5-9,6.9c-3.4,2-6.5,4.8-9.9,6.9c-6.8,4.3-15.1,10.1-22.8,12.1c-8,2-15.5,5.4-23.5,6.9
	c-4.1,0.8-8.4,1-12.5,1.5c-3.9,0.7-8.3,1.1-12.1,1.4c-8.4,0.7-16.3,3.1-24.9,3.1c-8.3,0-15.5,2.9-23.5,3.5c-3.5,0.3-6.1-1.9-9.9-2.4
	c-3.7-0.5-7.9-1.2-11.4-1.5c-2.9-0.3-8.7-2.9-11-0.8c-2.3,2-2.2,7.7-1.5,10.5c1.1,3.8,4.5,7.3,8,9.6c2.9,1.9,3.5,0.7,6.5,0.4
	c1.9-0.1,3,0.8,4.9,2.2c1.8,1.4,3.5,3.3,5.8,4.2c2,0.8,4.9-0.1,6.5,0.5c3.4,1.4,7.1,7.3,11.3,5.2c1.1,1.2,2.9,2,4.5,2
	c-2.4,7.9,6.9,13.5,13.2,14.4c3.9,0.5,5,2.3,7.9,5.2c2.4,2.4,4.9,5,8.3,5.7c3.8,0.8,8.4,0.1,12.4,0.1c4.1,0,8,0.8,12,1.4
	c7.2,1.1,14.8,3.9,21.3,7.7c6.3,3.5,12.8,6.9,18.6,10.9c5.8,3.9,10.9,9.9,17.1,13.3c5.6,3.1,14.5,6.8,20.5,3.3
	c5.7-3.4,10.5-12.9,12.2-19.2c1.8-6.3,2.2-12.9,4.6-19c2.7-6.5,7.9-11.7,13-16.4c5-4.8,10.1-8.7,15.5-12.9c4.5-3.4,9.8-8.4,14-10.6
	l2,1.5c-0.3,0-0.8-0.5-0.4,0c13.9,6.5,20.4,22.7,31.9,32.1c3,2.4,6.5,4.2,10.1,4.9c4.6,0.8,5.3-2.7,9.4-3.7c3.1-0.7,6.4,2.9,9.6,3.5
	c4.3,1,8.6,0.4,12.5-1.9c3-1.8,4.9-4.8,7.1-7.5c2.6-3.3,27.5-24.3,30.8-28.1c6.5-7.2,50.4-48.9,55-55.3c4.2-6,10.3-10.1,15.1-15.5
	c6.8-7.6,13.2-15.5,20-23.1c3.4-3.7,39.8-34.2,42.7-37c5.7-5.2,9.6-11.6,15.6-16.4c13.7-11,26.4-23.1,39.4-34.5
	c6.1-5.3,11.8-10.7,16.2-17.5c2.3-3.7,4.6-7.2,6.8-11c1.5-2.7,12.6-19.2,15.4-20c3.9-1.1,7.3-3.3,11.1-4.5
	c8.6-2.9,17.1-5.6,25.7-9.6c7.9-3.8,18.2-4.8,26.2-9c4.5-2.4,8.7-6.5,12.6-9.8c2.3-1.9,7.1-5.2,7.6-8.2
	C1539,181.6,1535.8,175.8,1533,172z M422.9,177.3c-1.4,3.5-2.6,7.5-3.9,11c-0.5,1.4-1.1,3-1.5,4.5c0-4.1,0.1-8.4,1.1-12.1
	c0.8-3.5,5.6-14.4,9.9-14.4C427.3,170.1,424.4,173.6,422.9,177.3z M1276.2,151.7c-1.8,1.6-3.8,3.4-6.1,5c-0.4-1.2-1-2.4-2-3.4
	c-2.9-2.7-7.9-2-9.8,1.4c1-1.4,0.8-5.7-1.1-6.8s-4.5,0.5-5.8,1.9c-0.5-2.3-3.5-1.5-5.2-0.5c-1.5,0.8-1.6,2-2.9,3.1
	c0.3-5.3-6.9,1.5-8,2.7c-2.2,2.4-3.9,5.7-5.6,8.4c-3.9,6.9-8.7,12.2-14.5,17.9c-11.1,10.7-29.4,15.9-44,19.8c-7.5,2-15.2,2.9-23,4.1
	c-8.2,1.4-16.7,1.1-24.9,2.6c-0.1,0.3-0.1,0.5-0.1,1l-4.5-1.5c-5.4-7.7-5.8-17.5-8.6-25.8c-1.4-3.9-2.7-8-4.5-12
	c-1.8-3.8-5.3-7.1-6.5-11c-6.1-1-14.9,7.5-19.4,11.4c-3.1,2.9-4.9,5.7-6,9.5c-1.1,3.5-2.7,7.2-5.8,9.6
	c-12.6,9.8-26.2,18.1-40.1,25.5c-12.6,6.7-24.6,14.3-35.5,23.5c-3.3,2.7-6.7,5.3-10.1,7.9c-3.8,3-6.9,7.9-11,10.3
	c-2.9-1.5-8,1.9-10.6,3.1c-3.8,1.6-7.9,2.9-11.8,4.2c-9,3.1-17.7,7.2-26.5,10.5c-8.2,3.1-15.8,6.3-23.5,10.5c-3.7,2-7.3,3.7-11,5.7
	c-2.4,1.4-7.7,5.4-10.5,5.6c-1.8,0.1-3.3-1.8-4.5-2.6c-1.6-1-3.4-1.6-5.2-1.9c-3.5-0.5-7.3,0.4-10.3,2c-6.8,3.5-14,7.5-21.6,9
	c-3.5,0.7-6.7,1.6-10.1,2.4c-5.2,1.2-4.3-1.9-7.2-5.4c-3-3.7-4.9-0.1-8.4,1.2c-3.3,1.4-6.3,2.9-9.4,4.6c-3.5,1.9-7.1,1.5-11,2.4
	c-3.8,1-7.2,1.9-10.6,3.4c-1.6,0.8-2.7,1.6-4.3,2.6c-1.9,1.2-2.4,1.4-5.2,0.5c-3.3-1.1-6.9-2.4-10.3-3.7c-1.4-0.4-3.5-1.2-4.5-2.3
	c-1.2-1.5-0.7-2.9-2.6-4.1c-3-1.9-7.3-1-10.5-2.4c-2.7-1.4-3.8-5.4-5.6-8c-2.3-3.3-5.7-5.8-8.3-9.1c-3-3.9-2.4-5.3-0.5-9.5
	c1.8-3.7,4.3-7.3,6-10.9c4.1-0.4,5.6-0.8,9-3c2.9-1.8,6.4-3.3,9.6-3.5c3.8-0.4,5.3,3,8.8,4.3c2.7,1,8,2.2,10.5,1.1
	c1.1-0.4,2.3-2,3-3c1.1-1.5,0.7-3.8,1.5-5c1.1-1.6,2.2-1.1,3.5-2c1.6-1.2,2.6-2.9,3.4-4.5c1.2-2.3,3.4-5.2,3.7-7.9
	c0.3-3.1-1.6-6.4-1.5-9.8c6.5,2.7,16.6-3.3,22.6-6.1c3.7-1.8,7.3-3.7,11-5.4c3.7-1.9,37.1-23.4,51-31.5c5-3,26-16.2,31.5-18.5
	c2.9-1.2,5.3-1.2,8.2-3c2.6-1.5,5.2-2.6,7.5-4.5c4.3-3.5,4.2-9.6,7.3-13.2l3.5,0.5c3.5,2.6,9.8,0.3,11.6-3.9c1-2.4,0.1-5.7,0.4-7.6
	c0.3-2.9,0.8-3.9-1.4-6.3c4.8-2.6,1.1-9.2-3.5-9.2c-0.4-3.7-0.7-5-2.6-6.4c3.3-1,6.7-2,10.1-3.1c4.2-1.4,8.3-2.6,12.5-3.8
	c4.2-1.2,9-4.5,12.5-2.2c5.7,3.8,21.9,17.1,24.9,19.3c2.7,1.9,6.1,3.1,8.7,5.3c6.1-3.3,12.5-6.5,18.9-9.5c3.3-1.5,15.5-7.7,18.5-9.2
	c7.2-3.8,16.3-5,24.1-8c9.1-3.4,47.6-12,57.3-15.6c8.6-3.3,17-6.9,26-9.1c3.3-0.8,10.1-3.4,13.2-2c3.1,1.4,6.5,6.8,9.4,9.1
	c6.9,5.4,14.4,11.1,22,15.5c8.6,4.9,17.7,9,26.9,12.6c8,3.1,36.6,18.6,42.5,22.4c5.8,3.9,12.4,8.7,19,10.9L1276.2,151.7z"/>
</svg>
