<svg xmlns="http://www.w3.org/2000/svg" width="100" height="51" fill="none" viewBox="0 0 100 51">
    <path fill="#000" d="M67.307 37.716S51.272 28.68 42.536 28.68c-8.737 0-10.315 9.037-10.315 9.037s1.578-14.389 10.315-14.389c8.736 0 24.77 14.39 24.77 14.39z"/>
    <path fill="#000" d="M48.728 12.956c4.655-.877 9.112-1.579 9.112-1.579s-9.25 0-17.809.807c-9.348.878-10.256 12.547-10.256 12.547s.79-2.404 3.353-5.089c.375-.386 1.164-.263 1.322.21.848 2.563 2.327 4.88 2.327 4.88s2.17-2.686 6.33-2.265c3.945.404 5.483 1.738 5.483 1.738s-2.445-2.334-4.102-5.475a2.763 2.763 0 0 1-.315-1.404c.039-2.088 1.952-3.86 4.555-4.37zM37.862 2.235c-2.663 0-4.931 1.561-5.7 3.702 0 0 4.694 2.018 11.36-.017 0 0-5.108 8.475-11.36.017a4.736 4.736 0 0 0-.296 1.667c0 2.948 2.8 4.194 6.114 4.194 3.313 0 5.916-1.263 5.916-4.211-.02-2.966-2.721-5.37-6.034-5.352z"/>
    <path fill="#000" d="M35.87 2.534S33.602 1.55 33.602.849c0 0 0-.176.789-.176.394 0 .591-.35.591-.35l.888 2.21zM36.343 2.568s1.223-1.965.77-2.544c0 0-.12-.14-.75.263-.316.21-.71.017-.71.017l.69 2.264zM3.837 51H2.309L0 48.7V41.78l2.309-2.3h1.528V51zm.607-9.219v-2.3h4.089l2.3 2.3V44.1H6.997v-2.318H4.444zm0 9.219v-2.3h2.553v-1.684h3.836V48.7l-2.3 2.3H4.444zM19.94 39.48h3.872V51h-3.846v-4.679h-2.847v-2.309h2.821v-4.531zM16.51 51h-3.836V39.48h3.836V51zm16.884-1.259h-3.767l.799-2.283h2.083l-3.082-7.977h3.742L37.76 51h-3.88l-.487-1.259zM28.603 51h-3.707l4.115-10.998 1.7 4.574L28.604 51zm10.26-11.52h4.08l3.09 5.122 2.43-4.166v5.798L45.696 51l-6.832-11.52zM49.028 51V39.48h3.837V51h-3.837zm-10.174 0V40.549l3.586 6.015V51h-3.586zm16.025 0V39.48h3.767V51H54.88zm4.375-9.219v-2.3h4.305l2.3 2.3v3.95l-2.3 2.309h-4.305v-2.31h2.786v-3.949h-2.786zm8.125 6.762h1.154V41.93H67.38V39.48h6.146v2.448H72.37v6.614h1.155V51h-6.146v-2.457zm11.58.113h1.44V51h-2.95l-2.336-2.3V41.78l2.335-2.3H80.4v2.335h-1.441v6.84zm3.515-6.84h-1.467v-2.335h2.978l2.326 2.3V48.7L83.985 51h-2.978v-2.344h1.467v-6.84zM99.15 51h-4.08l-6.98-11.52h4.055L99.15 51zm-11.06 0V40.575l3.343 5.477V51H88.09zm11.06-11.52v10.426l-3.342-5.503V39.48h3.342z"/>
</svg>
