<svg xmlns="http://www.w3.org/2000/svg" width="25" height="28" fill="none" viewBox="0 0 25 28">
    <path fill="#262626" d="M24.979 26.352L22.086 9.767a1.374 1.374 0 0 0-1.342-1.154h-4.811a5.084 5.084 0 0 0 1.462-3.582C17.395 2.257 15.2 0 12.5 0 9.8 0 7.604 2.257 7.604 5.03c0 1.402.561 2.67 1.463 3.583h-4.81c-.661 0-1.226.486-1.343 1.154L.021 26.352c-.07.408.038.828.297 1.146.259.318.642.502 1.045.502h22.274a1.35 1.35 0 0 0 1.045-.502 1.43 1.43 0 0 0 .297-1.146zM12.5 2.802c1.196 0 2.169 1 2.169 2.229S13.696 7.26 12.5 7.26c-1.196 0-2.169-1-2.169-2.23 0-1.228.973-2.228 2.169-2.228zm-.356 18.878a.405.405 0 0 1-.357.218h-.643a.404.404 0 0 1-.35-.206l-1.592-2.793-1.018 1.068v1.286a.637.637 0 0 1-.628.645.637.637 0 0 1-.627-.645v-5.1c0-.355.28-.644.627-.644s.628.289.628.645v2.192l2.416-2.702a.401.401 0 0 1 .299-.135h.552c.163 0 .31.1.373.254a.426.426 0 0 1-.082.453l-1.675 1.781 2.06 3.256a.427.427 0 0 1 .017.427zm6.184-.851a.422.422 0 0 1-.153.326c-.25.206-.58.39-.99.553-.499.2-1.005.299-1.516.299-.65 0-1.217-.14-1.7-.42a2.646 2.646 0 0 1-1.09-1.204 3.977 3.977 0 0 1-.365-1.701c0-.666.135-1.257.407-1.774a2.779 2.779 0 0 1 1.191-1.19c.399-.212.895-.318 1.489-.318.772 0 1.375.166 1.809.499.188.144.347.312.477.504.124.183.149.419.067.625a.644.644 0 0 1-.475.398h-.001a.614.614 0 0 1-.64-.287 1.303 1.303 0 0 0-.332-.364c-.241-.182-.543-.273-.905-.273-.549 0-.985.18-1.308.536-.324.358-.486.888-.486 1.591 0 .759.164 1.327.492 1.706.328.38.758.57 1.29.57.262 0 .526-.054.79-.16.264-.106.491-.235.68-.386v-.81h-.913a.531.531 0 0 1-.524-.538c0-.298.235-.539.524-.539h1.776c.224 0 .406.187.406.418v1.939z"/>
</svg>
