<svg xmlns="http://www.w3.org/2000/svg" width="158" height="23" fill="none" viewBox="0 0 158 23">
    <path fill="#757373" d="M36.757 12.624h2.687v1.159h-2.687v3.045h-1.232v-3.045h-2.688v-1.159h2.688V9.811h1.232v2.813zm9.201-.244h.92c.579-.01 1.033-.162 1.364-.457.331-.296.497-.695.497-1.198 0-1.13-.563-1.695-1.688-1.695-.53 0-.954.152-1.271.457-.314.3-.47.7-.47 1.198h-1.225c0-.764.278-1.397.834-1.9.56-.508 1.271-.761 2.132-.761.909 0 1.622.24 2.138.721.516.481.775 1.15.775 2.006 0 .42-.137.825-.41 1.218-.27.393-.639.686-1.106.88.53.168.937.446 1.224.835.292.388.437.862.437 1.423 0 .865-.282 1.551-.847 2.059-.565.507-1.3.761-2.205.761-.904 0-1.641-.245-2.21-.735-.566-.49-.848-1.136-.848-1.94h1.231c0 .508.166.914.497 1.219.33.304.774.457 1.33.457.592 0 1.044-.155 1.358-.464.313-.309.47-.752.47-1.33 0-.561-.173-.991-.517-1.291-.344-.3-.84-.455-1.49-.464h-.92v-1zm11.678-1.708c0 .48-.128.909-.384 1.284a2.565 2.565 0 0 1-1.026.88c.503.217.9.532 1.192.947.295.415.443.885.443 1.41 0 .834-.282 1.498-.847 1.993-.56.494-1.3.741-2.218.741-.927 0-1.67-.247-2.23-.741-.557-.499-.835-1.163-.835-1.993 0-.52.141-.99.424-1.41a2.68 2.68 0 0 1 1.185-.953 2.526 2.526 0 0 1-1.013-.88 2.27 2.27 0 0 1-.37-1.278c0-.813.26-1.457.78-1.934.521-.476 1.207-.714 2.06-.714.847 0 1.53.238 2.051.714.526.477.788 1.121.788 1.934zm-1 4.495c0-.539-.171-.978-.516-1.318-.34-.34-.785-.51-1.337-.51-.552 0-.995.168-1.33.504-.332.335-.497.776-.497 1.324 0 .547.161.977.483 1.29.327.314.78.47 1.357.47.574 0 1.024-.156 1.35-.47.327-.317.49-.748.49-1.29zm-1.84-6.137c-.48 0-.871.15-1.172.45-.295.296-.443.7-.443 1.211 0 .49.146.887.437 1.192.295.3.688.45 1.178.45s.88-.15 1.172-.45c.296-.305.444-.702.444-1.192s-.153-.889-.457-1.198c-.305-.309-.69-.463-1.159-.463zm10.652 4.654c0 1.434-.245 2.5-.735 3.197-.49.697-1.256 1.046-2.297 1.046-1.028 0-1.79-.34-2.284-1.02-.494-.683-.75-1.703-.768-3.058v-1.635c0-1.417.245-2.47.735-3.158.49-.688 1.258-1.032 2.304-1.032 1.037 0 1.8.333 2.29 1 .49.661.742 1.685.755 3.07v1.59zm-1.225-1.675c0-1.037-.145-1.792-.437-2.264-.291-.477-.752-.715-1.383-.715-.627 0-1.084.236-1.37.708-.288.472-.435 1.198-.444 2.178v1.96c0 1.041.15 1.811.45 2.31.305.494.763.742 1.377.742.605 0 1.053-.234 1.344-.702.295-.468.45-1.205.463-2.211v-2.006zm6.236 1.873c0-.997.133-1.955.398-2.873a8.407 8.407 0 0 1 1.198-2.502c.53-.75 1.079-1.28 1.648-1.589l.252.808c-.645.494-1.174 1.249-1.59 2.264-.41 1.015-.635 2.151-.674 3.409l-.007.563c0 1.703.311 3.182.933 4.435.376.75.821 1.337 1.338 1.761l-.252.748c-.587-.326-1.147-.874-1.681-1.642-1.042-1.5-1.563-3.294-1.563-5.382zm9.248-.324c-.255.304-.562.55-.92.735a2.468 2.468 0 0 1-1.165.278c-.556 0-1.041-.137-1.456-.41a2.681 2.681 0 0 1-.954-1.153 3.961 3.961 0 0 1-.337-1.648c0-.644.121-1.225.364-1.741a2.719 2.719 0 0 1 1.046-1.185c.45-.274.975-.41 1.576-.41.953 0 1.703.357 2.25 1.072.552.71.828 1.681.828 2.913v.357c0 1.876-.37 3.246-1.112 4.111-.742.86-1.86 1.302-3.357 1.324h-.238V16.77h.258c1.01-.018 1.788-.28 2.33-.788.543-.512.839-1.32.887-2.423zm-1.886 0c.41 0 .788-.126 1.132-.377.349-.252.602-.563.761-.934v-.49c0-.803-.174-1.456-.523-1.96-.349-.502-.79-.754-1.324-.754-.538 0-.97.207-1.297.622-.327.41-.49.954-.49 1.629 0 .657.156 1.2.47 1.628a1.51 1.51 0 0 0 1.27.636zm6.587-1.178h.92c.578-.01 1.033-.162 1.364-.457.33-.296.496-.695.496-1.198 0-1.13-.562-1.695-1.688-1.695-.53 0-.953.152-1.271.457-.313.3-.47.7-.47 1.198h-1.225c0-.764.278-1.397.834-1.9.56-.508 1.271-.761 2.132-.761.91 0 1.622.24 2.138.721.517.481.775 1.15.775 2.006 0 .42-.137.825-.41 1.218-.27.393-.638.686-1.106.88.53.168.938.446 1.225.835.29.388.437.862.437 1.423 0 .865-.283 1.551-.848 2.059-.565.507-1.3.761-2.204.761-.905 0-1.642-.245-2.211-.735-.565-.49-.848-1.136-.848-1.94h1.232c0 .508.165.914.496 1.219.331.304.775.457 1.33.457.592 0 1.044-.155 1.358-.464.313-.309.47-.752.47-1.33 0-.561-.172-.991-.517-1.291-.344-.3-.84-.455-1.489-.464h-.92v-1zm8.785 1.568c0 .985-.13 1.93-.391 2.834a8.27 8.27 0 0 1-1.185 2.496c-.53.763-1.086 1.306-1.668 1.628l-.258-.748c.68-.52 1.224-1.328 1.635-2.423.415-1.099.626-2.317.635-3.654v-.212c0-.927-.097-1.787-.291-2.582a8.632 8.632 0 0 0-.814-2.145c-.345-.63-.733-1.123-1.165-1.476l.258-.748c.582.322 1.136.86 1.661 1.615.53.755.925 1.587 1.185 2.496.265.91.398 1.882.398 2.92zm11.346-5.104l-3.991 8.95h-1.285l3.979-8.632h-5.217V8.156h6.514v.688zm1.953 4.118l.49-4.806h4.939v1.132h-3.9l-.29 2.628a3.11 3.11 0 0 1 1.608-.417c.878 0 1.575.291 2.092.874.516.578.774 1.361.774 2.35 0 .993-.269 1.776-.807 2.35-.534.57-1.282.854-2.244.854-.852 0-1.547-.236-2.086-.708-.538-.472-.845-1.126-.92-1.96h1.159c.075.552.271.969.589 1.251.318.278.737.418 1.258.418.569 0 1.015-.195 1.337-.583.326-.388.49-.925.49-1.609 0-.644-.177-1.16-.53-1.549-.349-.393-.814-.589-1.397-.589-.534 0-.953.117-1.258.35l-.324.266-.98-.252zm7.613 0l.49-4.806h4.939v1.132h-3.9l-.29 2.628a3.11 3.11 0 0 1 1.608-.417c.878 0 1.576.291 2.092.874.516.578.775 1.361.775 2.35 0 .993-.27 1.776-.808 2.35-.534.57-1.282.854-2.244.854-.852 0-1.547-.236-2.086-.708-.538-.472-.845-1.126-.92-1.96h1.159c.075.552.271.969.589 1.251.318.278.737.418 1.258.418.569 0 1.015-.195 1.337-.583.326-.388.49-.925.49-1.609 0-.644-.177-1.16-.53-1.549-.349-.393-.814-.589-1.397-.589-.534 0-.953.117-1.257.35l-.325.266-.98-.252zm9.725 1.238h-3.23v-1h3.23v1zm1.635-1.238l.49-4.806h4.939v1.132h-3.9l-.29 2.628a3.11 3.11 0 0 1 1.608-.417c.878 0 1.576.291 2.092.874.516.578.774 1.361.774 2.35 0 .993-.269 1.776-.807 2.35-.534.57-1.282.854-2.244.854-.852 0-1.547-.236-2.086-.708-.538-.472-.845-1.126-.92-1.96h1.159c.075.552.271.969.589 1.251.318.278.737.418 1.258.418.569 0 1.015-.195 1.337-.583.327-.388.49-.925.49-1.609 0-.644-.177-1.16-.53-1.549-.348-.393-.814-.589-1.397-.589-.534 0-.953.117-1.257.35l-.325.266-.98-.252zm7.614 0l.49-4.806h4.938v1.132h-3.9l-.29 2.628a3.113 3.113 0 0 1 1.608-.417c.878 0 1.575.291 2.092.874.517.578.774 1.361.774 2.35 0 .993-.269 1.776-.807 2.35-.534.57-1.282.854-2.244.854-.852 0-1.547-.236-2.085-.708-.539-.472-.846-1.126-.92-1.96h1.158c.075.552.271.969.589 1.251.317.278.737.418 1.258.418.57 0 1.015-.195 1.337-.583.326-.388.49-.925.49-1.609 0-.644-.177-1.16-.53-1.549-.348-.393-.814-.589-1.397-.589-.534 0-.953.117-1.257.35l-.324.266-.98-.252zm9.724 1.238h-3.23v-1h3.23v1zm1.635-1.238l.49-4.806h4.94v1.132h-3.9l-.291 2.628a3.108 3.108 0 0 1 1.608-.417c.879 0 1.576.291 2.092.874.516.578.775 1.361.775 2.35 0 .993-.27 1.776-.808 2.35-.534.57-1.282.854-2.245.854-.85 0-1.546-.236-2.085-.708-.538-.472-.845-1.126-.92-1.96h1.159c.075.552.272.969.59 1.251.317.278.736.418 1.256.418.57 0 1.016-.195 1.338-.583.327-.388.49-.925.49-1.609 0-.644-.177-1.16-.53-1.549-.349-.393-.813-.589-1.396-.589-.534 0-.953.117-1.258.35l-.325.266-.98-.252zm7.614 0l.49-4.806h4.938v1.132h-3.899l-.292 2.628a3.11 3.11 0 0 1 1.609-.417c.878 0 1.576.291 2.092.874.517.578.775 1.361.775 2.35 0 .993-.27 1.776-.808 2.35-.534.57-1.282.854-2.244.854-.852 0-1.547-.236-2.086-.708-.537-.472-.844-1.126-.92-1.96h1.16c.074.552.27.969.588 1.251.318.278.737.418 1.258.418.57 0 1.015-.195 1.337-.583.327-.388.49-.925.49-1.609 0-.644-.177-1.16-.53-1.549-.348-.393-.814-.589-1.397-.589-.533 0-.953.117-1.258.35l-.324.266-.98-.252z"/>
    <path stroke="#8D8B8B" stroke-miterlimit="10" stroke-width=".7263149999999999" d="M11.5 22.637c6.15 0 11.137-4.986 11.137-11.137C22.637 5.35 17.65.363 11.5.363 5.35.363.363 5.35.363 11.5c0 6.15 4.986 11.137 11.137 11.137z"/>
    <path stroke="#8D8B8B" stroke-miterlimit="10" stroke-width=".48421" d="M14.483 18.99H8.517a.798.798 0 0 1-.796-.795V4.805c0-.438.358-.796.796-.796h5.966c.438 0 .796.358.796.796v13.39a.798.798 0 0 1-.796.796z"/>
    <path stroke="#8D8B8B" stroke-miterlimit="10" stroke-width=".48421" d="M14.589 4.937H8.457v12.198h6.132V4.937z"/>
    <path stroke="#8D8B8B" stroke-miterlimit="10" stroke-width=".242105" d="M12.395 18.328h-1.79a.368.368 0 0 1-.365-.365c0-.199.166-.364.365-.364h1.79c.199 0 .364.165.364.364a.368.368 0 0 1-.364.365z"/>
</svg>
