<svg xmlns="http://www.w3.org/2000/svg" width="15" height="15" fill="none" viewBox="0 0 15 15">
    <mask id="a" width="15" height="15" x="0" y="0" maskUnits="userSpaceOnUse">
        <circle cx="7.5" cy="7.5" r="7.5" fill="#C4C4C4"/>
    </mask>
    <g mask="url(#a)">
        <mask id="b" width="22" height="15" x="0" y="0" maskUnits="userSpaceOnUse">
            <path fill="#fff" d="M19.838 0H1.526C.683 0 0 .672 0 1.5v12c0 .828.683 1.5 1.526 1.5h18.312c.842 0 1.526-.672 1.526-1.5v-12c0-.828-.684-1.5-1.526-1.5z"/>
        </mask>
        <g mask="url(#b)">
            <path fill="#fff" d="M19.838 0H1.526C.683 0 0 .672 0 1.5v12c0 .828.683 1.5 1.526 1.5h18.312c.842 0 1.526-.672 1.526-1.5v-12c0-.828-.684-1.5-1.526-1.5z"/>
            <path fill="#D02F44" fill-rule="evenodd" d="M0 0h21.364v1H0V0zm0 2h21.364v1H0V2zm0 2h21.364v1H0V4zm0 2h21.364v1H0V6zm0 2h21.364v1H0V8zm0 2h21.364v1H0v-1zm0 2h21.364v1H0v-1zm0 2h21.364v1H0v-1z" clip-rule="evenodd"/>
            <path fill="#46467F" d="M9.156 0H0v7h9.156V0z"/>
            <path fill="#fff" d="M1.136 0l.153.471h.496l-.4.291.152.471-.4-.29-.401.29.153-.47L.488.47h.495L1.136 0zM2.955 0l.153.471h.495l-.4.291.153.471-.401-.29-.401.29.153-.47-.4-.292h.495L2.955 0zM2.955 1.818l.153.471h.495l-.4.291.153.472-.401-.292-.401.292.153-.472-.4-.29h.495l.153-.472zM1.136 1.818l.153.471h.496l-.4.291.152.472-.4-.292-.401.292.153-.472-.401-.29h.495l.153-.472zM4.773 1.818l.153.471h.495l-.4.291.152.472-.4-.292-.401.292.153-.472-.4-.29h.495l.153-.472zM6.591 1.818l.153.471h.495l-.4.291.153.472-.401-.292-.4.292.152-.472-.4-.29h.495l.153-.472zM8.409 1.818l.153.471h.495l-.4.291.153.472-.401-.292-.4.292.152-.472-.4-.29h.495l.153-.472zM8.409 3.636l.153.471h.495l-.4.292.153.47-.401-.29-.4.29.152-.47-.4-.292h.495l.153-.47zM4.773 0l.153.471h.495l-.4.291.152.471-.4-.29-.401.29.153-.47-.4-.292h.495L4.773 0zM6.591 0l.153.471h.495l-.4.291.153.471-.401-.29-.4.29.152-.47-.4-.292h.495L6.59 0zM8.409 0l.153.471h.495l-.4.291.153.471-.401-.29-.4.29.152-.47-.4-.292h.495L8.409 0zM1.136 3.636l.153.471h.496l-.4.292.152.47-.4-.29-.401.29.153-.47-.401-.292h.495l.153-.47zM2.955 3.636l.153.471h.495l-.4.292.153.47-.401-.29-.401.29.153-.47-.4-.292h.495l.153-.47zM4.773 3.636l.153.471h.495l-.4.292.152.47-.4-.29-.401.29.153-.47-.4-.292h.495l.153-.47zM6.591 3.636l.153.471h.495l-.4.292.153.47-.401-.29-.4.29.152-.47-.4-.292h.495l.153-.47zM8.409 5.455l.153.47h.495l-.4.292.153.471-.401-.291-.4.291.152-.471-.4-.291h.495l.153-.471zM1.136 5.455l.153.47h.496l-.4.292.152.471-.4-.291-.401.291.153-.471-.401-.291h.495l.153-.471zM2.955 5.455l.153.47h.495l-.4.292.153.471-.401-.291-.401.291.153-.471-.4-.291h.495l.153-.471zM4.773 5.455l.153.47h.495l-.4.292.152.471-.4-.291-.401.291.153-.471-.4-.291h.495l.153-.471zM6.591 5.455l.153.47h.495l-.4.292.153.471-.401-.291-.4.291.152-.471-.4-.291h.495l.153-.471z"/>
        </g>
    </g>
</svg>
