<svg xmlns="http://www.w3.org/2000/svg" width="23" height="23" fill="none" viewBox="0 0 23 23">
    <path stroke="#8D8B8B" stroke-miterlimit="10" stroke-width=".7263149999999999" d="M11.5 22.637c6.15 0 11.137-4.986 11.137-11.137C22.637 5.35 17.65.363 11.5.363 5.35.363.363 5.35.363 11.5c0 6.15 4.986 11.137 11.137 11.137z"/>
    <path stroke="#8D8B8B" stroke-miterlimit="10" stroke-width=".48421" d="M14.483 18.99H8.517a.798.798 0 0 1-.796-.795V4.805c0-.438.358-.796.796-.796h5.966c.438 0 .796.358.796.796v13.39a.798.798 0 0 1-.796.796z"/>
    <path stroke="#8D8B8B" stroke-miterlimit="10" stroke-width=".48421" d="M14.589 4.937H8.457v12.198h6.132V4.937z"/>
    <path stroke="#8D8B8B" stroke-miterlimit="10" stroke-width=".242105" d="M12.395 18.328h-1.79a.368.368 0 0 1-.365-.365c0-.199.166-.364.365-.364h1.79c.199 0 .364.165.364.364a.368.368 0 0 1-.364.365z"/>
</svg>
